<?xml version="1.0" encoding="utf-8"?>
<!-- Generator: Adobe Illustrator 16.0.0, SVG Export Plug-In . SVG Version: 6.00 Build 0)  -->
<!DOCTYPE svg PUBLIC "-//W3C//DTD SVG 1.1//EN" "http://www.w3.org/Graphics/SVG/1.1/DTD/svg11.dtd">
<svg version="1.1" id="Layer_1" xmlns="http://www.w3.org/2000/svg" xmlns:xlink="http://www.w3.org/1999/xlink" x="0px" y="0px"
	 width="924px" height="924px" viewBox="0 0 924 924" enable-background="new 0 0 924 924" xml:space="preserve">
<g id="Layer_2">
	<g>
		<rect x="327" y="433" fill="#FFFFFF" width="270" height="58"/>
	</g>
	<g>
		<path fill="#FFFFFF" d="M462,21.083l404.97,35.948L902.918,462L866.97,866.97L462,902.918L57.031,866.97L21.083,462L57.031,57.031
			L462,21.083 M462,0L37.667,37.667L0,462l37.667,424.333L462,924l424.333-37.667L924,462L886.333,37.667L462,0L462,0z"/>
	</g>
	<g>
		<path fill="#FFFFFF" d="M462,29.698L894.302,462L462,894.302L29.698,462L462,29.698 M462,0L0,462l462,462l462-462L462,0L462,0z"/>
	</g>
</g>
</svg>
